PathFileType	4	(X/Y/Z)	C:/Users/beibeiliu/ov580/test_trc/User2\sequence.9_training_dense_left.trc
DataRate	CameraRate	NumFrames	NumMarkers	Units	OrigDataRate	OrigDataStartFrame	OrigNumFrames
120	120	13	19	mm	120	27	80
Frame#	Time	ThumbCMC			ThumbMCP			ThumbIP			ThumbTip			IndexMCP			IndexPIP			IndexTip			MiddleMCP			MiddlePIP			MiddleTip			RingMCP			RingPIP			RingTip			PinkyMCP			PinkyPIP			PinkyTip			BackHand1			BackHand2			BackHand3	
		X0	Y0	Z0	X1	Y1	Z1	X2	Y2	Z2	X3	Y3	Z3	X4	Y4	Z4	X5	Y5	Z5	X6	Y6	Z6	X7	Y7	Z7	X8	Y8	Z8	X9	Y9	Z9	X10	Y10	Z10	X11	Y11	Z11	X12	Y12	Z12	X13	Y13	Z13	X14	Y14	Z14	X15	Y15	Z15	X16	Y16	Z16	X17	Y17	Z17	X18	Y18	Z18	
26	0.216667	-259.905	-10.4849	-28.4371	-270.924	-8.88096	-60.4206	-261.035	-13.3681	-93.5199	-243.901	-15.9899	-113.303	-248.259	-43.295	-103.57	-238.511	-52.0073	-128.822	-231.988	-56.5398	-154.449	-222.9	-56.7358	-111.141	-221.497	-57.5039	-139.159	-215.022	-64.3907	-167.654	-207.763	-58.3598	-104.794	-202.776	-60.5289	-131.134	-200.184	-62.5581	-160.497	-186.273	-54.393	-85.5969	-187.139	-53.3629	-113.412	-186.35	-60.1008	-133.799	-208.865	-59.1199	-46.149	-214.231	-60.2836	-9.73082	-245.69	-45.206	-33.8044	
27	0.225	-258.983	-7.23616	-23.139	-277.279	-0.279721	-52.6521	-273.849	-8.91587	-91.6272	-260.131	-14.1138	-114.682	-261.015	-43.3937	-96.5848	-263.505	-51.6061	-126.629	-256.163	-60.5238	-150.254	-246.847	-57.6875	-108.977	-243.13	-64.964	-137.133	-245.489	-71.2076	-169.606	-224.208	-64.2908	-101.612	-224.79	-67.3572	-131.393	-225.694	-70.5608	-156.077	-202.281	-62.4242	-87.6299	-206.391	-60.3379	-110.746	-210.222	-66.8479	-136.08	-224.045	-58.317	-43.3981	-220.798	-59.3173	-9.77973	-252.555	-44.092	-31.6018	
28	0.233333	-259.408	1.93305	-19.628	-271.469	11.4971	-44.1546	-275.079	7.82382	-81.4803	-265.911	0.181709	-105.342	-276.271	-33.3358	-93.731	-279.147	-40.0836	-118.621	-281.442	-50.7787	-149.258	-265.766	-48.8624	-100.522	-270.268	-56.0052	-134.054	-270.998	-63.1771	-160.394	-246.757	-60.7034	-101.971	-252.783	-63.4654	-128.261	-256.882	-65.4861	-153.705	-224.47	-63.4191	-87.2352	-228.756	-66.1467	-114.702	-237.653	-70.4817	-136.506	-236.046	-61.9485	-45.3536	-232.332	-59.1254	-7.69217	-260.202	-37.4786	-24.1336	
29	0.241667	-242.487	10.7831	-14.2294	-256.115	23.6413	-41.0947	-265.809	30.0878	-76.0883	-259.938	18.6099	-103.683	-275.951	-15.439	-88.0385	-285.363	-17.5883	-115.07	-293.502	-22.4465	-144.299	-272.657	-37.2222	-100.073	-280.026	-37.8996	-129.54	-290.035	-41.6291	-160.515	-259.055	-49.9049	-98.8569	-265.914	-51.1634	-124.964	-272.684	-53.7423	-151.248	-238.244	-59.1571	-87.0268	-247.124	-60.9902	-113.82	-257.835	-60.2951	-134.943	-245.585	-51.8959	-39.7439	-238.798	-54.2347	-10.1126	-259.179	-24.2786	-20.9397	
30	0.25	-227.175	10.0492	-16.0758	-238.298	33.5812	-38.8299	-241.789	36.609	-70.798	-243.447	27.3524	-99.6035	-270.523	5.04207	-89.4431	-276.416	1.05643	-111.15	-288.361	-1.90096	-141.704	-269.449	-20.1502	-96.3745	-278.932	-18.7838	-127.421	-288.889	-19.4018	-154.07	-264.383	-37.5231	-98.8426	-270.919	-37.6459	-124.812	-279.74	-29.2503	-150.16	-247.129	-54.6435	-88.7585	-253.879	-52.5892	-111.266	-269.216	-47.7193	-134.809	-251.477	-49.6477	-42.4183	-242.303	-52.4837	-8.98131	-252.923	-16.6985	-20.9145	
31	0.258333	-209.949	8.83222	-12.1185	-213.881	35.9608	-35.7091	-220.188	40.3923	-67.1986	-225.093	39.3781	-96.8244	-255.949	16.544	-86.7396	-263.155	22.3135	-108.957	-275.08	24.2268	-136.14	-263.789	-0.533814	-97.8359	-270.749	4.06521	-125.384	-284.137	10.051	-151.304	-262.455	-25.3759	-95.4385	-268.19	-18.4758	-118.488	-277.764	-9.32325	-146.581	-252.741	-47.9281	-85.3467	-261.98	-40.6342	-111.436	-270.18	-31.9464	-128.724	-253.539	-38.4045	-39.3742	-244.132	-44.0744	-6.81091	-241.805	-4.25096	-19.5376	
32	0.266667	-194.045	2.23107	-13.1567	-190.348	26.9794	-33.7617	-195.019	39.0857	-67.913	-202.803	35.415	-94.0187	-233.298	28.0187	-80.3689	-243.605	34.1244	-107.637	-255.308	39.5983	-132.947	-250.298	10.9159	-92.7978	-257.291	19.8863	-120.187	-266.77	31.1701	-146.555	-257.216	-6.69548	-92.199	-263.134	-1.47224	-115.489	-268.46	9.83792	-142.011	-258.185	-34.2861	-85.1324	-260.944	-21.0302	-107.99	-268.924	-9.58872	-129.617	-253.153	-26.5108	-38.6354	-244.422	-35.315	-5.60703	-230.853	-4.80582	-18.4599	
33	0.275	-179.641	-6.0579	-11.5694	-171.728	16.2735	-35.7177	-176.92	28.1774	-71.9144	-182.073	27.0163	-93.7782	-216.544	25.4393	-81.8465	-224.329	35.6675	-106.945	-232.391	45.2714	-133.027	-233.72	19.4971	-94.1082	-239.199	27.4262	-119.215	-245.962	39.6694	-143.556	-246.875	3.63046	-92.7102	-251.327	9.60311	-114.444	-255.371	22.8375	-142.191	-257.247	-20.1088	-85.1396	-255.541	-10.0183	-107.023	-263.043	1.25959	-125.234	-244.758	-14.2566	-36.1616	-242.416	-24.2845	-6.85094	-219.268	0.3363	-17.9699	
34	0.283333	-170.13	-19.0632	-12.1955	-154.03	-0.70879	-36.7797	-157.284	8.88875	-70.4372	-166.237	9.97066	-96.3218	-195.43	18.0915	-83.4416	-203.279	28.1223	-113.261	-209.726	35.6775	-133.593	-215.879	16.0719	-96.5307	-220.367	22.7792	-124.157	-224.549	35.5023	-151.537	-235.604	2.4645	-91.5877	-234.266	11.742	-116.698	-237.674	21.799	-143.865	-247.939	-20.0474	-79.5968	-245.349	-7.99323	-106.895	-245.193	4.21659	-126.541	-233.899	-11.1482	-35.0001	-233.907	-21.3545	-1.62707	-205.871	-2.90163	-18.6297	
35	0.291667	-158.108	-27.8691	-9.85498	-144.512	-12.394	-38.8744	-145.403	-7.69355	-70.9836	-152.343	-8.70054	-97.8193	-178.736	7.23298	-87.6941	-181	14.4393	-117.662	-188.131	18.8653	-139.052	-203.593	3.88466	-99.9354	-200.911	8.50752	-128.084	-203.011	17.9772	-155.501	-222.046	-5.65662	-94.1345	-220.253	0.767888	-120.7	-219.026	6.82342	-145.673	-235.778	-21.0142	-84.074	-232.169	-15.8514	-108.92	-232.996	-9.14064	-127.987	-225.038	-12.0879	-37.473	-225.654	-18.0939	-3.13349	-192.266	-8.83145	-18.205	
36	0.3	-149.787	-28.5343	-7.82488	-135.973	-18.8568	-37.1536	-133.86	-17.9193	-70.0628	-136.262	-19.6515	-99.9059	-170.186	-7.48886	-90.7263	-171.072	-4.95269	-115.823	-175.948	-2.78349	-143.673	-189.081	-10.1686	-100.093	-185.723	-10.0462	-128.036	-191.15	-7.45855	-158.344	-209.216	-19.9247	-94.8883	-206.57	-19.0712	-119.976	-202.716	-14.1615	-153.267	-221.315	-34.1836	-85.3781	-217.086	-33.162	-109.316	-218.614	-27.5434	-133.67	-217.321	-20.3522	-36.8624	-216.921	-18.8106	-6.11418	-183.901	-11.4368	-20.2303	
37	0.308333	-147.915	-25.5874	-8.03883	-131.694	-17.8431	-36.5908	-125.91	-21.9044	-67.5969	-127.166	-28.4228	-96.3716	-162.325	-18.4328	-95.6552	-160.744	-19.6099	-120.8	-160.232	-22.0424	-147.746	-182.004	-26.3389	-100.259	-177.278	-30.5749	-130.433	-178.547	-33.061	-159.858	-200.722	-36.9573	-97.052	-192.964	-38.4577	-125.268	-193.062	-40.5782	-155.416	-215.22	-50.8964	-80.87	-209.479	-53.6742	-107.971	-203.474	-49.3938	-129.048	-207.631	-27.1091	-37.0513	-216.992	-24.1523	-7.96627	-177.598	-11.2131	-23.7328	
38	0.316667	-151.073	-19.338	-6.52557	-128.581	-11.5587	-33.307	-121.195	-18.7094	-67.4674	-122.161	-33.5922	-88.5026	-156.295	-24.8186	-90.6366	-149.785	-29.9178	-119.913	-151.873	-39.6605	-145.759	-170.72	-35.7442	-99.963	-166.404	-46.3904	-129.445	-164.918	-53.4222	-160.984	-187.696	-50.1287	-97.4184	-182.62	-56.4982	-121.789	-176.988	-62.0797	-148.893	-201.769	-65.4531	-81.2594	-197.705	-71.5991	-105.244	-192.579	-71.7204	-132.487	-207.2	-38.307	-39.7785	-212.521	-27.6943	-11.3193	-180.312	-10.9921	-25.4077	
